<svg width="30" height="31" viewBox="0 0 30 31" fill="none" xmlns="http://www.w3.org/2000/svg">
<path fill-rule="evenodd" clip-rule="evenodd" d="M7.90323 2.5C6.86803 2.5 5.87522 2.88631 5.14323 3.57394C4.41123 4.26158 4 5.19421 4 6.16667V24.8333C4 25.8058 4.41123 26.7384 5.14323 27.4261C5.87522 28.1137 6.86803 28.5 7.90323 28.5H22.0968C23.132 28.5 24.1248 28.1137 24.8568 27.4261C25.5888 26.7384 26 25.8058 26 24.8333V10.124C26 9.616 25.824 9.12267 25.4975 8.71733L21.2423 3.42667C21.0108 3.13882 20.7114 2.90533 20.3676 2.74454C20.0238 2.58376 19.645 2.50005 19.2609 2.5H7.90323ZM6.12903 6.16667C6.12903 5.24667 6.92387 4.5 7.90323 4.5H18.1935V10.3627C18.1935 10.9147 18.6705 11.3627 19.2581 11.3627H23.871V24.8333C23.871 25.7533 23.0761 26.5 22.0968 26.5H7.90323C6.92387 26.5 6.12903 25.7533 6.12903 24.8333V6.16667Z" fill="white"/>
<path d="M19.6875 16.75C19.6875 16.5014 19.5887 16.2629 19.4129 16.0871C19.2371 15.9113 18.9986 15.8125 18.75 15.8125H11.25C11.0014 15.8125 10.7629 15.9113 10.5871 16.0871C10.4113 16.2629 10.3125 16.5014 10.3125 16.75C10.3125 16.9986 10.4113 17.2371 10.5871 17.4129C10.7629 17.5887 11.0014 17.6875 11.25 17.6875H18.75C18.9986 17.6875 19.2371 17.5887 19.4129 17.4129C19.5887 17.2371 19.6875 16.9986 19.6875 16.75ZM19.6875 21.75C19.6875 21.5014 19.5887 21.2629 19.4129 21.0871C19.2371 20.9113 18.9986 20.8125 18.75 20.8125H11.25C11.0014 20.8125 10.7629 20.9113 10.5871 21.0871C10.4113 21.2629 10.3125 21.5014 10.3125 21.75C10.3125 21.9986 10.4113 22.2371 10.5871 22.4129C10.7629 22.5887 11.0014 22.6875 11.25 22.6875H18.75C18.9986 22.6875 19.2371 22.5887 19.4129 22.4129C19.5887 22.2371 19.6875 21.9986 19.6875 21.75Z" fill="white"/>
</svg>
